PathFileType	4	(X/Y/Z)	Patient4_TMGait_0pt6_01_left_15.trc.trc
DataRate	CameraRate	NumFrames	NumMarkers	Units	OrigDataRate	OrigDataStartFrame	OrigNumFrames
79.096045197740	79.096045197740	4	33	mm	79.096045197740	18	       141
Frame#	Time	Sacral			L.Shoulder			Chest			R.Shoulder			Neck			R.ASIS			L.ASIS			R.Thigh.Superior			R.Thigh.Lateral			R.Thigh.Inferior			R.Patella			L.Thigh.Superior			L.Thigh.Lateral			L.Thigh.Inferior			L.Patella			L.Shank.Superior			L.Shank.Lateral			L.Shank.Inferior			R.Shank.Superior			R.Shank.Lateral			R.Shank.Inferior			R.Heel			R.Midfoot.Superior			R.Midfoot.Lateral			R.Toe			L.Heel			L.Midfoot.Lateral			L.Midfoot.Superior			L.Toe			L.Elbow			L.Wrist			R.Elbow			R.Wrist			
		X1	Y1	Z1	X2	Y2	Z2	X3	Y3	Z3	X4	Y4	Z4	X5	Y5	Z5	X6	Y6	Z6	X7	Y7	Z7	X8	Y8	Z8	X9	Y9	Z9	X10	Y10	Z10	X11	Y11	Z11	X12	Y12	Z12	X13	Y13	Z13	X14	Y14	Z14	X15	Y15	Z15	X16	Y16	Z16	X17	Y17	Z17	X18	Y18	Z18	X19	Y19	Z19	X20	Y20	Z20	X21	Y21	Z21	X22	Y22	Z22	X23	Y23	Z23	X24	Y24	Z24	X25	Y25	Z25	X26	Y26	Z26	X27	Y27	Z27	X28	Y28	Z28	X29	Y29	Z29	X30	Y30	Z30	X31	Y31	Z31	X32	Y32	Z32	X33	Y33	Z33	

18	18.424928571429	633.257846845336	1008.365025022991	512.139092528119	781.627318574484	1441.264520097591	331.750892380863	907.137435916001	1362.524841638758	471.184180046647	853.247680868540	1426.445668367017	658.177132189610	790.778998751624	1493.492376725372	488.353620420949	866.018177449111	937.488044411304	604.187091594259	826.828721272479	961.353327454742	331.890258619695	863.352873052747	727.022566866255	572.857157897484	761.211441153561	631.263913682444	633.987204482987	820.556577220877	569.198830923232	551.484052615663	802.790782811966	485.031663892109	554.372561763902	902.161454612555	774.719673418629	358.249976719494	850.381589675195	646.251575399277	281.527454438349	956.308485510950	587.621009730631	338.834161963778	985.520676827178	528.112658875169	335.094843376113	975.893163424351	458.849280625956	325.823423223261	924.364963532665	321.894144713012	278.002104889491	1025.198144038452	234.851287341229	329.632061607434	766.868411710770	399.860884454659	557.724806554836	686.090513448782	300.298358772586	614.720000972985	721.375513063224	205.134068645818	546.512244071351	577.318116305627	43.274298414241	506.680868675747	750.750043736295	96.727870728305	543.341927502620	661.078951733523	35.827635682207	579.953157604424	869.011638330019	43.322089136601	568.737732896345	961.741281692992	50.995208914296	373.448777890539	1035.180033792141	56.517644177747	292.959779413719	1099.968870765597	140.290064594302	307.875166011248	1235.331428905618	119.364085772601	283.816470992261	641.407503296767	1116.129114517912	230.428613329105	594.855556561118	861.552292206840	227.982316495849	997.835652024244	1111.070281606300	751.922054218764	1243.829733367720	1143.204707731280	690.585076453393	
19	18.437571428571	633.298489197811	1007.726678687289	510.426880668637	781.783162183816	1440.444008780958	330.242968666559	907.131414182181	1361.676341462696	469.805307231909	852.954370224724	1425.691001872807	656.675394083684	790.627757181304	1492.574274147169	486.916779415872	865.732472260718	936.564486620297	603.095509174362	827.246019567085	960.214720576014	330.558812907100	862.055938675730	725.841510246875	572.299317668958	758.979044159418	630.753492323951	633.196302211930	818.187392472218	567.956058556805	551.006800343769	799.633717665303	483.713468979742	553.823698523090	902.444683133092	773.666046041676	357.742649129602	850.403756361942	644.435927072043	282.084133486473	956.108948445754	586.115540035804	339.566712295449	984.950619779178	525.798894468595	336.168852502832	974.373311939386	456.011067120376	327.503754639925	920.537719269039	319.652500803783	280.780285973267	1019.887521072564	231.405085237282	332.861225278109	762.860424449068	398.991884224021	557.288831838230	680.961841915528	300.386742485713	614.427319684410	715.065076791391	204.729011341660	546.312119906176	569.693107071354	43.510096006362	506.756254200156	743.187943330315	96.692054028124	543.430768167943	653.438759528968	35.818319804210	579.970697586196	861.397205360100	43.034760400086	568.760136315752	953.420062286471	49.414621545484	377.882558289987	1026.470345329159	53.439469251953	296.982022551651	1093.137041848042	135.522531667413	311.676951221792	1227.778920575218	111.579799914674	286.816591175819	638.582039757550	1116.790803717245	230.118827288363	590.011544357211	862.480002928930	229.029485471219	999.049544174130	1111.381923093320	749.774239304047	1242.257986853372	1153.464087549661	685.757128572701	
20	18.450214285714	633.458340955347	1006.911538222714	508.508430365047	782.013298287930	1439.469386191250	328.555386655637	907.144731528689	1360.756965935718	468.329153943692	852.552034520032	1424.853228821614	655.058315938743	790.476362874651	1491.555034577592	485.299389172760	865.574540224248	935.550547547748	601.945444402309	827.912874041452	958.950986269060	329.170201124983	861.051499216520	724.573968260864	571.756104999076	757.009617801064	630.145470769262	632.310938340639	816.138882831462	566.614623566934	550.488000322621	796.764427233656	482.277784261767	553.176713135115	902.960843633815	772.354100874711	357.250554541626	850.643548929896	642.498517683753	282.588733359009	955.970720096184	584.396179518538	340.466259119361	984.316807391778	523.085071662581	337.465253478796	972.603017998585	452.707633792974	329.366398695892	916.009561411206	317.206637861989	283.508648909118	1013.337256752915	227.336305503321	336.297148218011	759.103793338565	398.020387587415	556.765148977842	676.048356007283	300.436310204682	614.066155160968	708.871470312237	204.273913720969	546.060448524537	562.091000606714	43.796994585402	506.830657501199	735.638356109255	96.649138898084	543.497913678191	645.814831273784	35.836005550456	579.987606320091	853.795147677577	42.701812888786	568.794774314055	942.976022830960	47.521223869711	382.005683808752	1015.892549336044	50.015630208814	300.919777540837	1084.712984207574	129.966684260947	315.940000899479	1218.592976349441	102.470452870345	290.581560510402	636.381917441757	1117.035240909640	229.527951016137	586.421734101971	862.874173229553	229.730577729698	999.847684452318	1111.435625003145	747.804489563270	1240.053340312152	1162.493899651809	681.238135000564	
21	18.462857142857	633.750655893784	1005.947790461207	506.394473859237	782.320595643592	1438.365869111206	326.691893963063	907.185082174293	1359.806771381004	466.761662204276	852.040881316774	1423.964128201593	653.334447994721	790.337215538290	1490.471659347099	483.495019618699	865.560404867902	934.454722142402	600.729125664624	828.824756030495	957.605562650708	327.736832942067	860.314125784606	723.228901028755	571.178087513980	755.275479235469	629.464058307742	631.311801194950	814.352159951167	565.201445109801	549.894373213735	794.120275414146	480.758484946263	552.400716792176	903.688142090972	770.784520175990	356.773966848279	851.016195837059	640.484082795536	283.018385564678	955.835805627824	582.497738683842	341.501919864781	983.548074530990	520.075616023105	338.965994568970	970.601930911548	449.095568831004	331.344544008131	911.012197688958	314.652137008498	286.106652102073	1005.920693258318	222.900464102294	339.821312474339	755.545458830166	396.982056091284	556.138378787812	671.315655687057	300.474658266238	613.630433697663	702.779748639328	203.800518418555	545.758612741207	554.516909848808	44.167330833123	506.909794886800	728.114502273397	96.612597644361	543.551888212028	638.211942823959	35.898240155507	580.007841401285	846.210131030233	42.320351481941	568.842028909163	931.060786750434	45.478788692830	385.693135034958	1004.092175999904	46.524765478723	304.643085668321	1075.201108193477	124.003992793550	320.532571487675	1208.307151204297	92.630264919798	294.979738952953	634.857974284651	1116.846042495216	228.626418872235	584.105851403848	862.717139494239	230.042147085688	1000.207734012736	1111.224976650635	746.023237448339	1237.332086061155	1170.228939619661	677.048409051312	
